# xmcd
#
# Track frame offsets:
# 150
# 15025
# 31835
# 44484
# 61475
# 75307
# 92803
# 104845
# 120272
# 137014
# 152190
# 167743
# 181552
# 195682
# 208876
#
# Disc length: 2950 seconds
#
#
# Revision: 0
# Processed by: cddbd v1.5.1PL0 Copyright (c) Steve Scherf et al.
# Submitted via: FreeRIP 2.942 
#
DISCID=bb0b840f
DTITLE=Grupo Karisma - Grupo Karisma Porque Brigamos
DYEAR=2005
DGENRE=Country
TTITLE0=Amor Antigo Karisma
TTITLE1=Te Amo Te Odeio  Karisma
TTITLE2=Porque Brigamos  Karisma
TTITLE3=Demorou  Karisma
TTITLE4=Que Pena Nós Dois  Karisma
TTITLE5=Mesa De Bar  Karisma
TTITLE6=Só Por Amor  Karisma
TTITLE7=Promessas  Karisma
TTITLE8=Olhos Azuis  Karisma
TTITLE9=Meus Braços Te Esperam  Karisma
TTITLE10=Vida Do Avesso  Karisma
TTITLE11=Três Beijinhos Pra Casar  Karisma
TTITLE12=Volta Pra Mim  Karisma
TTITLE13=De Frente Com a Solidão  Karisma
TTITLE14=Acabou  Karisma
EXTD=
EXTT0=
EXTT1=
EXTT2=
EXTT3=
EXTT4=
EXTT5=
EXTT6=
EXTT7=
EXTT8=
EXTT9=
EXTT10=
EXTT11=
EXTT12=
EXTT13=
EXTT14=
PLAYORDER=
